<svg width="24" height="24" viewBox="0 0 24 24" fill="none" xmlns="http://www.w3.org/2000/svg">
<rect opacity="0.01" width="24" height="24" fill="white"/>
<path fill-rule="evenodd" clip-rule="evenodd" d="M11.8373 1.64999C9.00073 1.64999 6.70066 3.94963 6.69998 6.78599L6.69998 6.78726H7.44998L6.69998 6.78472L6.69998 6.78599C6.69108 9.61408 8.97538 11.914 11.8038 11.9236H11.8064H11.8373C14.6742 11.9236 16.9737 9.6242 16.9737 6.78726C16.9737 3.95052 14.6744 1.64999 11.8373 1.64999ZM8.19998 6.78726C8.19998 4.77875 9.82873 3.14999 11.8373 3.14999C13.8456 3.14999 15.4736 4.77855 15.4736 6.78726C15.4736 8.79578 13.8449 10.4236 11.8364 10.4236H11.8076C9.80792 10.4161 8.1932 8.78978 8.19998 6.7898V6.78726ZM5.75 18.7866C5.75 17.9893 6.30533 17.0845 7.44188 16.3385C8.55835 15.6057 10.1245 15.1119 11.8446 15.1119C13.5556 15.1119 15.1226 15.601 16.2421 16.3297C17.3822 17.0719 17.9391 17.9717 17.9391 18.766C17.9391 19.1512 17.8152 19.4377 17.5916 19.6788C17.3521 19.9372 16.9676 20.1737 16.411 20.3685C15.2884 20.7614 13.6826 20.9119 11.8446 20.9119C10.0152 20.9119 8.40853 20.7666 7.28249 20.3781C6.72404 20.1854 6.3382 19.9508 6.09786 19.694C5.87403 19.4549 5.75 19.1705 5.75 18.7866ZM11.8446 13.6119C9.85282 13.6119 7.99665 14.1801 6.6188 15.0845C5.26103 15.9757 4.25 17.2831 4.25 18.7866C4.25 19.5531 4.52006 20.2034 5.00274 20.7191C5.4689 21.2171 6.10198 21.5575 6.79319 21.796C8.16647 22.2699 9.98208 22.4119 11.8446 22.4119C13.7184 22.4119 15.5348 22.2644 16.9065 21.7843C17.597 21.5426 18.2278 21.1989 18.6916 20.6987C19.1714 20.1812 19.4391 19.5308 19.4391 18.766C19.4391 17.2596 18.4196 15.9574 17.0604 15.0726C15.6806 14.1744 13.8253 13.6119 11.8446 13.6119Z" fill="#A9A9A9"/>
</svg>
