<svg width="40" height="40" viewBox="0 0 40 40" fill="none" xmlns="http://www.w3.org/2000/svg">
<rect opacity="0.01" width="40" height="40" fill="white"/>
<path d="M0 20C0 8.95431 8.95431 0 20 0C31.0457 0 40 8.95431 40 20C40 31.0457 31.0457 40 20 40C8.95431 40 0 31.0457 0 20Z" fill="#E23E3E"/>
<rect opacity="0.01" x="11.25" y="11.25" width="17.5" height="17.5" fill="#181818"/>
<path fill-rule="evenodd" clip-rule="evenodd" d="M21.011 15.1784C21.011 14.6196 20.5584 14.1667 20.0001 14.1667C19.4418 14.1667 18.9892 14.6196 18.9892 15.1784V18.9882H15.1776C14.6193 18.9882 14.1667 19.4412 14.1667 20C14.1667 20.5587 14.6193 21.0117 15.1776 21.0117H18.9892V24.8216C18.9892 25.3804 19.4418 25.8333 20.0001 25.8333C20.5584 25.8333 21.011 25.3804 21.011 24.8216V21.0117H24.8224C25.3808 21.0117 25.8334 20.5587 25.8334 20C25.8334 19.4412 25.3808 18.9882 24.8224 18.9882H21.011V15.1784Z" fill="#181818"/>
</svg>
